<?xml version="1.0" standalone="no"?>
<!DOCTYPE svg PUBLIC "-//W3C//DTD SVG 20010904//EN"
 "http://www.w3.org/TR/2001/REC-SVG-20010904/DTD/svg10.dtd">
<svg version="1.0" xmlns="http://www.w3.org/2000/svg"
 width="230.000000pt" height="230.000000pt" viewBox="0 0 230.000000 230.000000"
 preserveAspectRatio="xMidYMid meet">

<g transform="translate(0.000000,230.000000) scale(0.100000,-0.100000)"
fill="#000000" stroke="none">
<path d="M143 2243 c-25 -52 -34 -61 -86 -86 -47 -23 -58 -32 -55 -49 2 -12
10 -24 18 -29 8 -4 33 -16 55 -27 31 -15 46 -31 68 -76 35 -70 62 -73 90 -11
26 55 45 74 97 99 67 32 66 57 -6 93 -45 22 -61 37 -76 68 -11 22 -23 47 -27
55 -5 8 -17 16 -29 18 -17 3 -26 -8 -49 -55z m77 -108 l24 -26 -27 -27 -27
-27 -26 26 -26 26 24 26 c29 32 30 32 58 2z"/>
<path d="M666 2059 c-204 -41 -388 -230 -425 -433 -33 -183 13 -427 124 -651
64 -128 65 -134 140 -465 42 -184 80 -352 86 -373 12 -46 63 -106 106 -123 70
-30 159 -4 208 60 25 33 32 67 91 413 63 376 63 378 94 406 40 36 80 35 121
-1 31 -27 31 -28 93 -398 45 -265 68 -381 82 -405 38 -64 115 -99 190 -85 40
8 106 63 123 104 6 15 47 187 91 382 78 347 82 358 140 475 88 178 125 310
137 489 12 189 -37 329 -161 452 -160 160 -356 201 -587 124 -130 -44 -209
-44 -339 0 -105 36 -226 47 -314 29z m287 -101 c82 -29 104 -33 197 -33 94 0
115 4 200 34 88 31 101 33 190 29 66 -3 113 -12 152 -27 117 -45 224 -152 269
-268 28 -72 36 -219 19 -335 -16 -114 -72 -279 -130 -381 -46 -82 -50 -99
-129 -449 -45 -200 -87 -375 -92 -390 -34 -87 -163 -73 -189 20 -6 20 -35 188
-65 372 -31 184 -60 347 -66 363 -16 38 -72 84 -119 97 -74 20 -171 -28 -199
-97 -6 -16 -35 -179 -66 -363 -30 -184 -59 -352 -65 -372 -21 -76 -111 -104
-163 -52 -32 32 -20 -12 -118 423 -77 342 -84 368 -126 441 -123 217 -177 519
-123 691 61 199 236 327 448 328 70 1 99 -4 175 -31z"/>
<path d="M582 1814 c-89 -44 -139 -122 -158 -241 l-7 -43 42 0 c38 0 41 2 41
26 0 78 72 184 135 200 23 6 25 10 19 38 -3 17 -9 34 -13 39 -4 4 -30 -5 -59
-19z"/>
<path d="M730 1800 l0 -41 38 3 c35 3 37 5 37 38 0 33 -2 35 -37 38 l-38 3 0
-41z"/>
<path d="M2082 678 c-5 -7 -13 -24 -17 -38 -14 -46 -37 -69 -92 -95 -69 -33
-70 -59 -3 -91 52 -25 71 -44 97 -99 28 -62 55 -59 90 11 22 45 37 61 68 76
22 11 47 23 55 27 8 5 16 17 18 29 3 17 -8 26 -55 49 -51 25 -61 35 -86 86
-28 57 -52 72 -75 45z m53 -154 l27 -27 -26 -26 -26 -26 -27 27 -27 27 24 26
c13 14 25 25 26 25 2 0 15 -12 29 -26z"/>
</g>
</svg>
