<?xml version="1.0" standalone="no"?>
<!DOCTYPE svg PUBLIC "-//W3C//DTD SVG 20010904//EN"
 "http://www.w3.org/TR/2001/REC-SVG-20010904/DTD/svg10.dtd">
<svg version="1.0" xmlns="http://www.w3.org/2000/svg"
 width="378.000000pt" height="378.000000pt" viewBox="0 0 378.000000 378.000000"
 preserveAspectRatio="xMidYMid meet">

<g transform="translate(0.000000,378.000000) scale(0.100000,-0.100000)"
fill="#000000" stroke="none">
<path d="M1183 3666 c-100 -24 -183 -74 -269 -160 -171 -172 -254 -392 -254
-675 0 -139 27 -282 64 -346 33 -56 87 -100 154 -125 51 -19 81 -20 1032 -20
956 0 981 0 1033 20 69 26 131 80 162 139 53 106 74 381 41 542 -82 393 -328
638 -643 639 -104 0 -200 -21 -400 -89 -98 -33 -203 -63 -233 -67 -51 -6 -61
-3 -130 33 -210 111 -398 147 -557 109z m347 -141 c41 -15 126 -57 189 -92
193 -108 367 -173 469 -176 38 -1 62 21 62 58 0 34 -29 52 -112 69 -42 8 -91
21 -108 28 l-33 14 144 51 c200 72 263 86 384 81 88 -3 108 -8 166 -36 161
-77 275 -239 331 -470 39 -162 23 -429 -32 -517 -12 -19 -41 -43 -68 -57 l-47
-23 -960 0 c-750 0 -968 3 -996 13 -51 18 -95 68 -114 132 -23 74 -32 297 -15
396 42 263 191 476 379 542 93 32 251 27 361 -13z"/>
<path d="M1335 2125 c-80 -21 -111 -64 -168 -238 l-48 -145 -94 -4 c-75 -2
-99 -7 -121 -24 -87 -64 -92 -137 -22 -289 25 -55 49 -109 52 -120 16 -46 37
-164 65 -375 33 -245 61 -363 117 -498 84 -203 164 -312 269 -363 62 -30 172
-33 221 -7 47 26 95 77 118 128 19 41 21 69 26 305 6 281 11 306 64 354 18 17
41 26 79 29 78 6 118 -14 148 -74 23 -47 24 -61 30 -309 6 -291 8 -302 80
-380 69 -74 161 -93 266 -53 83 30 165 116 226 234 102 199 144 349 182 646
38 297 54 362 125 510 48 98 53 156 18 208 -43 62 -70 75 -172 78 l-92 4 -48
145 c-57 171 -87 214 -169 238 -70 21 -1074 21 -1152 0z m1134 -118 c19 -9 33
-38 67 -139 l43 -128 -665 0 c-524 0 -664 3 -664 12 0 16 68 219 78 234 21 32
49 33 582 34 405 0 541 -3 559 -13z m399 -419 c2 -16 -13 -64 -36 -115 -72
-160 -87 -221 -127 -532 -28 -216 -50 -314 -100 -441 -88 -230 -182 -340 -287
-340 -42 0 -76 18 -102 53 -20 27 -21 45 -27 290 -7 309 -14 341 -87 417 -136
140 -372 90 -442 -95 -21 -55 -24 -81 -29 -322 -6 -245 -7 -263 -27 -290 -60
-81 -164 -68 -252 32 -47 54 -118 196 -160 322 -36 105 -55 205 -77 388 -33
272 -51 351 -121 511 -24 56 -44 108 -44 116 0 38 -6 38 970 36 l945 -3 3 -27z"/>
</g>
</svg>
