<?xml version="1.0" standalone="no"?>
<!DOCTYPE svg PUBLIC "-//W3C//DTD SVG 20010904//EN"
 "http://www.w3.org/TR/2001/REC-SVG-20010904/DTD/svg10.dtd">
<svg version="1.0" xmlns="http://www.w3.org/2000/svg"
 width="230.000000pt" height="230.000000pt" viewBox="0 0 230.000000 230.000000"
 preserveAspectRatio="xMidYMid meet">

<g transform="translate(0.000000,230.000000) scale(0.100000,-0.100000)"
fill="#000000" stroke="none">
<path d="M1202 2288 c-17 -17 -17 -419 0 -436 7 -7 39 -12 75 -12 l63 0 0
-290 0 -290 40 0 40 0 0 290 0 290 63 0 c36 0 68 5 75 12 7 7 12 31 12 55 l0
43 349 0 c304 0 352 2 365 16 20 19 23 183 4 202 -9 9 -104 12 -365 12 l-353
0 0 48 c0 26 -5 53 -12 60 -8 8 -62 12 -178 12 -116 0 -170 -4 -178 -12z m288
-218 l0 -150 -110 0 -110 0 0 150 0 150 110 0 110 0 0 -150z m730 0 l0 -40
-325 0 -325 0 0 40 0 40 325 0 325 0 0 -40z"/>
<path d="M719 1743 c-73 -24 -138 -79 -178 -153 l-36 -65 1 -135 c1 -123 17
-233 49 -345 6 -20 3 -21 -64 -17 -61 4 -92 -2 -268 -53 -109 -31 -204 -62
-210 -67 -10 -8 -13 -109 -13 -444 0 -380 2 -434 16 -448 14 -14 130 -16 1134
-16 1004 0 1120 2 1134 16 14 14 16 68 16 448 0 335 -3 436 -12 444 -7 5 -103
35 -213 67 -178 51 -207 56 -268 52 -66 -4 -68 -4 -62 17 31 104 48 223 49
346 1 129 0 137 -27 188 -49 94 -134 159 -229 177 -34 6 -35 5 -42 -26 -7 -38
-4 -42 50 -57 63 -18 118 -64 148 -123 22 -46 26 -66 26 -144 0 -123 -24 -256
-71 -400 l-40 -119 -14 -276 c-18 -320 -19 -332 -45 -355 -18 -17 -19 -16 -24
6 -3 13 -10 189 -17 391 -12 363 -12 368 9 435 29 93 52 231 52 315 0 64 -3
72 -29 99 -16 16 -37 29 -45 29 -14 0 -16 -13 -10 -107 5 -88 2 -127 -14 -207
-12 -54 -23 -100 -25 -103 -3 -2 -31 14 -63 37 -143 100 -332 98 -475 -5 -28
-20 -52 -35 -53 -33 -13 15 -39 162 -43 241 -5 79 -3 97 8 97 8 0 50 -12 94
-26 63 -21 107 -28 208 -32 75 -3 132 -1 138 5 5 5 6 23 3 40 l-6 31 -132 4
c-108 4 -144 9 -209 31 -99 34 -122 34 -158 -2 -26 -27 -29 -35 -29 -99 0 -84
23 -224 51 -312 21 -64 21 -68 9 -453 -11 -313 -16 -387 -27 -387 -31 0 -42
64 -58 355 -15 279 -16 293 -46 375 -17 47 -39 123 -50 170 -25 110 -36 313
-20 362 19 58 64 111 119 141 70 38 135 38 244 1 72 -25 98 -29 195 -29 61 0
114 3 117 6 3 3 3 20 0 37 l-6 32 -100 0 c-83 0 -113 5 -190 30 -102 34 -176
38 -249 13z m567 -624 c26 -13 67 -42 91 -64 39 -38 43 -46 43 -91 1 -27 7
-197 14 -379 8 -181 12 -332 10 -334 -3 -3 -12 3 -21 12 -12 12 -28 91 -59
299 -24 156 -48 299 -53 320 -14 44 -67 93 -119 109 -71 21 -169 -26 -197 -96
-7 -16 -32 -160 -56 -319 -31 -207 -48 -295 -60 -310 -10 -12 -19 -19 -22 -16
-3 3 1 154 9 335 7 182 13 352 14 379 0 45 4 53 43 91 43 41 97 72 152 86 51
14 158 2 211 -22z m-773 -170 c21 -5 52 -23 70 -39 l31 -28 17 -306 c16 -296
18 -308 41 -344 14 -21 42 -46 62 -57 32 -17 36 -24 36 -57 l0 -38 -345 0
-345 0 2 387 3 387 180 52 c202 59 196 58 248 43z m1522 -43 l180 -52 3 -387
2 -387 -345 0 -345 0 0 38 c1 33 5 40 43 63 74 44 78 62 96 400 15 270 18 299
36 319 25 28 92 60 125 59 14 0 106 -24 205 -53z m-825 -13 c30 -28 30 -31 75
-325 24 -164 51 -311 59 -327 17 -32 56 -67 87 -76 14 -5 19 -16 19 -46 l0
-39 -300 0 -300 0 0 39 c0 30 5 41 19 46 31 9 70 44 87 76 8 16 35 163 59 327
45 294 45 297 75 325 19 17 42 27 60 27 18 0 41 -10 60 -27z"/>
</g>
</svg>
