<?xml version="1.0" standalone="no"?>
<!DOCTYPE svg PUBLIC "-//W3C//DTD SVG 20010904//EN"
 "http://www.w3.org/TR/2001/REC-SVG-20010904/DTD/svg10.dtd">
<svg version="1.0" xmlns="http://www.w3.org/2000/svg"
 width="230.000000pt" height="230.000000pt" viewBox="0 0 230.000000 230.000000"
 preserveAspectRatio="xMidYMid meet">

<g transform="translate(0.000000,230.000000) scale(0.100000,-0.100000)"
fill="#000000" stroke="none">
<path d="M12 2288 c-17 -17 -17 -528 0 -549 7 -9 39 -37 71 -64 54 -45 61 -48
87 -38 27 10 32 7 96 -58 38 -38 73 -69 78 -69 6 0 25 14 43 32 l33 32 92 -91
92 -92 -16 -35 c-54 -113 -5 -220 110 -242 33 -6 175 37 188 58 5 7 -13 68
-20 68 -1 0 -31 -11 -66 -25 -80 -31 -105 -31 -135 0 -30 29 -32 63 -5 115 36
70 30 82 -82 196 l-102 104 33 34 c40 41 38 46 -47 129 -56 56 -59 61 -49 87
10 28 6 33 -119 166 -71 75 -153 163 -182 195 -53 59 -77 70 -100 47z m281
-354 l36 -40 -89 -89 -89 -88 -35 29 -35 29 0 193 -1 193 88 -93 c49 -51 105
-111 125 -134z m100 -277 l-48 -46 -48 47 -47 46 47 48 48 48 48 -48 49 -49
-49 -46z"/>
<path d="M691 2135 c-84 -19 -157 -55 -215 -106 l-46 -40 30 -26 30 -25 37 33
c20 17 67 46 103 63 57 27 75 31 155 31 75 0 103 -5 170 -30 72 -26 92 -30
195 -30 101 0 124 4 190 28 174 64 320 40 446 -75 103 -94 142 -219 124 -392
-16 -153 -46 -256 -118 -396 -59 -116 -65 -133 -81 -242 l-17 -117 34 -6 c19
-3 36 -5 38 -3 2 3 11 53 20 114 14 92 22 119 54 174 88 149 138 323 147 510
5 102 2 137 -12 185 -64 222 -240 357 -465 357 -70 0 -103 -6 -185 -33 -135
-44 -213 -45 -346 -1 -119 38 -203 46 -288 27z"/>
<path d="M371 1418 c-32 -9 -33 -11 -26 -46 10 -56 73 -208 116 -283 l38 -66
52 -374 c28 -205 57 -385 64 -400 20 -38 70 -77 115 -89 77 -21 160 22 193 97
9 21 41 193 72 383 31 190 61 358 67 373 14 37 45 57 88 57 43 0 74 -20 88
-57 6 -15 28 -130 48 -256 l37 -227 36 6 c20 4 37 7 38 8 0 0 -17 109 -39 241
-46 277 -58 309 -134 345 -81 40 -184 8 -223 -69 -12 -22 -40 -163 -75 -376
-31 -187 -61 -357 -66 -377 -25 -90 -136 -105 -173 -24 -8 17 -36 191 -61 386
l-47 355 -59 115 c-32 63 -68 147 -80 185 -34 108 -30 103 -69 93z"/>
<path d="M1968 913 c-175 -175 -278 -285 -278 -297 0 -11 9 -29 20 -41 l20
-21 -74 -73 -75 -74 -53 24 c-75 33 -220 34 -292 1 -107 -48 -159 -116 -159
-202 0 -86 52 -154 159 -202 40 -18 67 -23 144 -23 102 0 157 17 227 71 73 56
98 165 54 239 l-22 38 68 71 c37 39 69 72 71 75 1 2 12 -5 25 -17 13 -12 30
-22 38 -22 7 0 114 100 236 222 l223 223 0 130 c0 133 -6 155 -39 155 -8 0
-140 -125 -293 -277z m63 -167 l-190 -190 -31 29 -31 29 218 218 218 218 3
-57 3 -57 -190 -190z m-516 -396 c55 -28 95 -78 95 -120 0 -111 -195 -186
-342 -130 -209 78 -118 286 122 277 56 -2 88 -8 125 -27z"/>
</g>
</svg>
