<?xml version="1.0" standalone="no"?>
<!DOCTYPE svg PUBLIC "-//W3C//DTD SVG 20010904//EN"
 "http://www.w3.org/TR/2001/REC-SVG-20010904/DTD/svg10.dtd">
<svg version="1.0" xmlns="http://www.w3.org/2000/svg"
 width="230.000000pt" height="230.000000pt" viewBox="0 0 230.000000 230.000000"
 preserveAspectRatio="xMidYMid meet">

<g transform="translate(0.000000,230.000000) scale(0.100000,-0.100000)"
fill="#000000" stroke="none">
<path d="M1040 2044 c-152 -20 -350 -100 -470 -192 -141 -107 -270 -268 -362
-452 -116 -233 -209 -643 -208 -924 1 -164 73 -220 285 -221 129 0 187 17 234
70 28 32 35 56 43 148 3 27 5 29 59 31 64 3 116 30 150 77 16 23 24 59 35 152
41 373 173 558 379 532 168 -21 272 -201 309 -533 12 -103 18 -127 39 -156 35
-45 90 -71 155 -71 l52 0 0 -45 c0 -102 46 -167 132 -191 53 -14 243 -14 296
1 91 24 131 90 132 212 0 101 -10 128 -49 128 -16 0 -33 -5 -37 -11 -3 -6 -6
-51 -5 -99 2 -79 -1 -91 -21 -115 -19 -22 -36 -28 -99 -36 -49 -6 -102 -6
-145 0 -99 14 -109 29 -118 167 -33 516 -202 893 -456 1017 -234 114 -493 40
-656 -188 -131 -184 -218 -485 -240 -829 -9 -134 -20 -151 -109 -167 -68 -13
-187 -7 -226 11 -51 23 -58 70 -39 261 21 212 72 452 127 597 142 379 396 633
718 718 106 27 313 25 425 -5 369 -99 648 -433 765 -919 19 -78 39 -101 74
-83 31 17 31 35 0 152 -54 205 -138 388 -249 539 -57 77 -195 213 -263 259
-76 51 -224 117 -317 140 -83 21 -265 34 -340 25z m181 -554 c187 -35 334
-199 424 -473 36 -110 73 -287 77 -372 l3 -50 -44 1 c-65 1 -86 30 -96 131
-29 321 -130 522 -303 601 -82 37 -184 37 -269 -2 -69 -31 -142 -101 -186
-177 -54 -92 -97 -253 -112 -422 -9 -96 -29 -125 -91 -134 -24 -3 -44 -1 -48
5 -9 15 21 207 50 319 53 205 120 337 224 443 111 113 233 156 371 130z"/>
<path d="M2212 813 c-22 -8 -34 -41 -22 -63 16 -31 68 -27 76 5 3 14 4 31 1
39 -6 15 -35 25 -55 19z"/>
</g>
</svg>
