<?xml version="1.0" standalone="no"?>
<!DOCTYPE svg PUBLIC "-//W3C//DTD SVG 20010904//EN"
 "http://www.w3.org/TR/2001/REC-SVG-20010904/DTD/svg10.dtd">
<svg version="1.0" xmlns="http://www.w3.org/2000/svg"
 width="230.000000pt" height="230.000000pt" viewBox="0 0 230.000000 230.000000"
 preserveAspectRatio="xMidYMid meet">

<g transform="translate(0.000000,230.000000) scale(0.100000,-0.100000)"
fill="#000000" stroke="none">
<path d="M675 2286 c-102 -32 -177 -91 -242 -189 -57 -86 -107 -227 -124 -348
l-12 -89 -126 0 c-86 0 -131 -4 -139 -12 -17 -17 -16 -192 1 -206 8 -7 68 -13
142 -14 l130 -3 12 -125 c44 -446 151 -908 258 -1120 82 -162 188 -222 260
-146 41 44 73 141 120 366 79 374 116 498 165 553 27 31 28 31 54 13 15 -9 36
-31 47 -49 30 -50 74 -199 103 -352 66 -344 78 -399 98 -453 25 -68 66 -112
103 -112 155 0 294 302 394 855 27 148 65 430 73 535 l3 35 129 3 c75 1 135 7
143 14 17 14 18 189 1 206 -8 8 -53 12 -138 12 l-127 0 -12 85 c-44 314 -217
535 -433 552 -68 6 -115 -8 -288 -81 -47 -19 -101 -36 -120 -36 -19 0 -73 17
-120 36 -202 86 -265 98 -355 70z m266 -119 c193 -85 226 -85 418 1 94 42 114
47 176 47 89 -1 151 -31 223 -110 81 -88 137 -227 157 -388 l7 -58 -138 3
-139 3 -5 95 -5 95 -485 0 -485 0 -5 -95 -5 -95 -137 -3 c-161 -3 -150 -16
-118 137 33 164 120 313 218 373 101 62 172 61 323 -5z m627 -479 l3 -98 -81
0 -80 0 0 63 c0 36 -5 68 -12 75 -7 7 -44 12 -94 12 -94 0 -94 0 -94 -91 l0
-59 -80 0 -80 0 0 59 c0 91 0 91 -94 91 -50 0 -87 -5 -94 -12 -7 -7 -12 -39
-12 -75 l0 -63 -60 0 -60 0 0 93 c0 52 3 97 7 100 4 4 191 6 417 5 l411 -3 3
-97z m-598 -138 c0 -113 -1 -120 -20 -120 -19 0 -20 7 -20 113 0 115 3 127 27
127 10 0 13 -27 13 -120z m358 -3 c3 -112 2 -117 -18 -117 -19 0 -20 6 -20
121 0 109 2 120 18 117 15 -3 17 -18 20 -121z m-671 1 l2 -38 -279 0 -280 0 0
40 0 40 278 -2 277 -3 2 -37z m1543 2 l0 -40 -279 0 -280 0 1 33 c0 17 3 35 5
40 2 4 128 7 279 7 l274 0 0 -40z m-1350 -101 c0 -93 6 -99 98 -99 47 0 83 5
90 12 7 7 12 40 12 80 l0 68 80 0 80 0 0 -68 c0 -40 5 -73 12 -80 7 -7 42 -12
88 -12 46 0 81 5 88 12 7 7 12 41 12 80 l0 69 78 -3 77 -3 3 -97 3 -98 -421 0
-420 0 0 93 c0 52 3 97 7 100 3 4 30 7 60 7 l53 0 0 -61z m-192 -114 c2 -56 7
-92 15 -97 16 -10 938 -10 954 0 8 5 13 41 15 97 l3 90 138 3 138 3 -5 -23
c-3 -13 -8 -59 -11 -103 -18 -219 -88 -599 -150 -815 -75 -260 -170 -429 -229
-407 -22 9 -52 118 -92 331 -79 425 -113 529 -199 605 -47 41 -109 43 -154 5
-72 -61 -107 -160 -190 -549 -60 -277 -94 -387 -122 -393 -21 -4 -73 50 -108
113 -95 169 -188 513 -240 885 -23 164 -39 338 -32 346 3 2 64 3 135 2 l131
-3 3 -90z"/>
</g>
</svg>
