<?xml version="1.0" standalone="no"?>
<!DOCTYPE svg PUBLIC "-//W3C//DTD SVG 20010904//EN"
 "http://www.w3.org/TR/2001/REC-SVG-20010904/DTD/svg10.dtd">
<svg version="1.0" xmlns="http://www.w3.org/2000/svg"
 width="230.000000pt" height="230.000000pt" viewBox="0 0 230.000000 230.000000"
 preserveAspectRatio="xMidYMid meet">

<g transform="translate(0.000000,230.000000) scale(0.100000,-0.100000)"
fill="#000000" stroke="none">
<path d="M745 2294 c-142 -36 -238 -132 -274 -274 -17 -69 -18 -83 -5 -172 16
-120 37 -203 70 -275 13 -31 37 -101 53 -156 16 -55 36 -104 43 -108 7 -5 41
-9 76 -9 l62 0 0 -103 c0 -67 4 -107 12 -115 7 -7 39 -12 75 -12 l63 0 0 -43
0 -43 -54 6 c-54 6 -54 6 -60 -23 -3 -16 -6 -33 -6 -38 0 -4 27 -11 60 -15
l60 -7 0 -76 0 -77 -54 6 c-54 6 -54 6 -60 -23 -3 -16 -6 -33 -6 -38 0 -4 27
-11 60 -15 l60 -7 0 -74 0 -75 -54 4 c-53 3 -55 2 -60 -26 -3 -16 -6 -32 -6
-37 0 -4 27 -11 60 -15 l60 -7 0 -76 0 -77 -54 6 -55 6 -6 -34 c-3 -19 -5 -35
-3 -37 2 -2 29 -7 62 -12 l58 -8 37 -91 c20 -50 42 -99 50 -108 11 -13 35 -16
142 -16 146 0 138 -4 179 100 12 30 24 58 28 62 4 4 34 3 67 -1 33 -5 61 -8
62 -7 0 0 4 18 8 38 l7 37 -61 7 -61 7 0 76 0 77 54 -6 c54 -6 54 -6 60 23 3
16 6 33 6 38 0 4 -27 11 -60 15 l-60 7 0 74 0 75 54 -4 c53 -3 55 -2 60 26 3
16 6 32 6 37 0 4 -27 11 -60 15 l-60 7 0 76 0 77 54 -6 c54 -6 54 -6 60 23 3
16 6 33 6 38 0 4 -27 11 -60 15 l-60 7 0 68 0 69 63 0 c36 0 68 5 75 12 8 8
12 48 12 115 l0 103 63 0 c79 0 88 8 117 115 12 44 35 111 51 149 37 87 56
162 73 284 13 89 12 103 -5 172 -59 230 -268 332 -504 245 -112 -41 -236 -42
-345 -2 -73 27 -190 42 -235 31z m202 -101 c69 -25 92 -28 203 -28 112 0 134
3 207 29 133 46 240 29 323 -54 54 -54 74 -103 78 -195 5 -98 -11 -194 -50
-300 -16 -44 -43 -122 -60 -172 l-30 -93 -468 0 -468 0 -30 93 c-17 50 -42
123 -57 161 -51 137 -71 316 -43 397 55 162 213 226 395 162z m513 -968 l0
-75 -310 0 -310 0 0 75 0 75 310 0 310 0 0 -75z m-160 -221 c0 -64 -1 -66 -22
-61 -13 3 -80 11 -150 18 l-128 12 0 49 0 48 150 0 150 0 0 -66z m-127 -125
l127 -12 0 -80 c0 -77 -1 -79 -22 -74 -13 3 -80 11 -150 18 l-128 12 0 80 c0
77 1 79 23 74 12 -3 79 -11 150 -18z m0 -230 l127 -12 0 -80 c0 -77 -1 -79
-22 -74 -13 3 -80 11 -150 18 l-128 12 0 80 c0 77 1 79 23 74 12 -3 79 -11
150 -18z m0 -230 l127 -12 0 -80 c0 -77 -1 -79 -22 -74 -13 3 -80 11 -150 18
l-128 12 0 80 c0 77 1 79 23 74 12 -3 79 -11 150 -18z m-5 -230 c61 -6 112
-13 112 -14 0 -1 -9 -23 -21 -49 l-20 -47 -91 3 -90 3 -24 59 c-13 33 -24 61
-24 63 0 2 10 1 23 -1 12 -3 73 -11 135 -17z"/>
<path d="M698 2103 c-48 -44 -74 -97 -84 -170 l-7 -53 42 0 c40 0 41 1 41 35
0 49 23 100 60 134 31 28 32 29 16 60 -9 17 -19 31 -21 31 -3 0 -24 -17 -47
-37z"/>
</g>
</svg>
